<?xml version="1.0" encoding="UTF-8"?>
<!DOCTYPE svg PUBLIC "-//W3C//DTD SVG 1.1//EN" "http://www.w3.org/Graphics/SVG/1.1/DTD/svg11.dtd">
<!-- Creator: CorelDRAW -->
<svg xmlns="http://www.w3.org/2000/svg" xml:space="preserve" width="156.505mm" height="153.188mm" version="1.1" style="shape-rendering:geometricPrecision; text-rendering:geometricPrecision; image-rendering:optimizeQuality; fill-rule:evenodd; clip-rule:evenodd"
viewBox="0 0 14826.85 14512.64"
 xmlns:xlink="http://www.w3.org/1999/xlink"
 xmlns:xodm="http://www.corel.com/coreldraw/odm/2003">
 <defs>
  <style type="text/css">
   <![CDATA[
    .str7 {stroke:white;stroke-width:36.87;stroke-linecap:round;stroke-linejoin:round;stroke-miterlimit:10;stroke-opacity:0.200000}
    .str4 {stroke:#212121;stroke-width:36.87;stroke-miterlimit:22.9256}
    .str2 {stroke:#263138;stroke-width:36.87;stroke-miterlimit:22.9256}
    .str3 {stroke:#263138;stroke-width:36.87;stroke-miterlimit:10}
    .str1 {stroke:#263138;stroke-width:36.87;stroke-linejoin:round;stroke-miterlimit:22.9256}
    .str5 {stroke:#263138;stroke-width:36.87;stroke-linecap:round;stroke-linejoin:round;stroke-miterlimit:10}
    .str8 {stroke:white;stroke-width:36.87;stroke-linecap:round;stroke-linejoin:round;stroke-miterlimit:10}
    .str6 {stroke:#263138;stroke-width:73.73;stroke-linecap:round;stroke-linejoin:round;stroke-miterlimit:10}
    .str0 {stroke:#263138;stroke-width:36.87;stroke-linecap:round;stroke-linejoin:round;stroke-miterlimit:10;stroke-dasharray:147.449066 147.449066}
    .fil2 {fill:none;fill-rule:nonzero}
    .fil8 {fill:none;fill-rule:nonzero}
    .fil5 {fill:#263138;fill-rule:nonzero}
    .fil0 {fill:#004FC6;fill-rule:nonzero}
    .fil4 {fill:white;fill-rule:nonzero}
    .fil7 {fill:black;fill-rule:nonzero;fill-opacity:0.200000}
    .fil6 {fill:white;fill-rule:nonzero;fill-opacity:0.200000}
    .fil3 {fill:white;fill-rule:nonzero;fill-opacity:0.501961}
    .fil1 {fill:white;fill-rule:nonzero;fill-opacity:0.701961}
   ]]>
  </style>
 </defs>
 <g id="Background_x0020_Simple">
  <metadata id="CorelCorpID_0Corel-Layer"/>
  <g id="_2410863039008">
   <path class="fil0" d="M14388.29 5629.66c-1646.01,-2818.76 -6110.38,-1814.83 -7022.29,-3185.99 -466.9,-702.05 -989.26,-1515.82 -1746.91,-1939.03 -722.29,-403.44 -1559.74,-547.37 -2289.87,-493.92 -2607.18,190.83 -3712.66,2523.54 -3211.63,5085.18 668.35,3417.09 3697.5,6907.61 7296.12,6932.05 1882.09,12.78 3678.97,-660 5088.5,-1611.09 10.55,-7.11 21.06,-14.24 31.54,-21.37 1408.13,-958.49 3111.25,-2613.73 1854.53,-4765.82z"/>
   <path class="fil1" d="M14388.29 5629.66c-1646.01,-2818.76 -6110.38,-1814.83 -7022.29,-3185.99 -466.9,-702.05 -989.26,-1515.82 -1746.91,-1939.03 -722.29,-403.44 -1559.74,-547.37 -2289.87,-493.92 -2607.18,190.83 -3712.66,2523.54 -3211.63,5085.18 668.35,3417.09 3697.5,6907.61 7296.12,6932.05 1882.09,12.78 3678.97,-660 5088.5,-1611.09 10.55,-7.11 21.06,-14.24 31.54,-21.37 1408.13,-958.49 3111.25,-2613.73 1854.53,-4765.82z"/>
  </g>
 </g>
 <g id="Lines">
  <metadata id="CorelCorpID_1Corel-Layer"/>
  <g id="_2410863041456">
   <line class="fil2 str0" x1="1611.67" y1="5834.75" x2="1428.67" y2= "5834.75" />
   <path class="fil2 str0" d="M1428.67 5834.75c-409.03,0 -740.6,331.58 -740.6,740.59"/>
   <line class="fil2 str0" x1="688.07" y1="6575.34" x2="688.07" y2= "10639.1" />
   <path class="fil2 str0" d="M688.07 10639.1c0,409.02 331.57,740.59 740.6,740.59"/>
   <line class="fil2 str0" x1="1428.67" y1="11379.69" x2="3939.7" y2= "11379.69" />
   <path class="fil2 str0" d="M3939.7 11379.69c409.01,0 740.59,-331.57 740.59,-740.59"/>
   <line class="fil2 str0" x1="4474.38" y1="2000.35" x2="4474.38" y2= "1197.63" />
   <path class="fil2 str0" d="M4474.38 1197.63c0,-250.49 203.06,-453.57 453.56,-453.57"/>
   <line class="fil2 str0" x1="4927.95" y1="744.06" x2="8193.39" y2= "744.06" />
   <path class="fil2 str0" d="M8193.39 744.06c250.5,0 453.57,203.08 453.57,453.57"/>
  </g>
 </g>
 <g id="Shadow">
  <metadata id="CorelCorpID_2Corel-Layer"/>
  <g id="_2410863042704">
   <path class="fil0" d="M13880.79 13608.86c0,499.14 -2895.54,903.77 -6467.35,903.77 -3571.84,0 -6467.37,-404.63 -6467.37,-903.77 0,-499.13 2895.53,-903.76 6467.37,-903.76 3571.81,0 6467.35,404.62 6467.35,903.76z"/>
   <path class="fil3" d="M13880.79 13608.86c0,499.14 -2895.54,903.77 -6467.35,903.77 -3571.84,0 -6467.37,-404.63 -6467.37,-903.77 0,-499.13 2895.53,-903.76 6467.37,-903.76 3571.81,0 6467.35,404.62 6467.35,903.76z"/>
  </g>
 </g>
 <g id="Window">
  <metadata id="CorelCorpID_3Corel-Layer"/>
  <g id="_2410863045584">
   <path class="fil4 str1" d="M13509.95 3077.41l0 6080.32c0,413.84 -335.62,749.47 -749.47,749.47l-10694.11 0c-413.84,0 -749.47,-335.63 -749.47,-749.47l0 -6080.32c0,-17.88 0.75,-35.38 2.24,-52.89 26.82,-389.27 351.27,-696.95 747.23,-696.95l10694.11 0c395.96,0 720.41,307.69 747.23,696.95 1.49,17.51 2.24,35.01 2.24,52.89z"/>
   <path class="fil5" d="M12481.07 9624.51l-10097.09 0c-387.92,0 -702.38,-314.47 -702.38,-702.39l0 -5616.71 11501.86 0 0 5616.71c0,387.92 -314.48,702.39 -702.39,702.39z"/>
   <path class="fil6" d="M13183.64 3305.37l0 5616.92c0,387.78 -311.19,702.16 -694.58,702.16l-10112.9 0c-383.37,0 -694.56,-314.39 -694.56,-702.16l0 -5616.92 11502.03 0z"/>
   <path class="fil0 str2" d="M13507.71 3024.52l-12188.57 0c26.82,-389.27 351.27,-696.95 747.23,-696.95l10694.11 0c395.96,0 720.41,307.69 747.23,696.95z"/>
   <path class="fil5" d="M2816.93 2676.04c0,73.32 -59.43,132.76 -132.75,132.76 -73.32,0 -132.76,-59.44 -132.76,-132.76 0,-73.32 59.44,-132.76 132.76,-132.76 73.32,0 132.75,59.45 132.75,132.76z"/>
   <path class="fil5" d="M3378.24 2676.04c0,73.32 -59.43,132.76 -132.76,132.76 -73.31,0 -132.76,-59.44 -132.76,-132.76 0,-73.32 59.45,-132.76 132.76,-132.76 73.33,0 132.76,59.45 132.76,132.76z"/>
   <path class="fil5" d="M3939.55 2676.04c0,73.32 -59.45,132.76 -132.76,132.76 -73.32,0 -132.76,-59.44 -132.76,-132.76 0,-73.32 59.44,-132.76 132.76,-132.76 73.32,0 132.76,59.45 132.76,132.76z"/>
   <line class="fil2 str3" x1="13183.46" y1="3305.6" x2="13183.46" y2= "8922.15" />
   <path class="fil2 str3" d="M13183.46 8922.15c0,387.78 -314.39,702.53 -702.54,702.53"/>
   <line class="fil2 str3" x1="12480.91" y1="9624.68" x2="2383.93" y2= "9624.68" />
   <path class="fil2 str3" d="M2383.93 9624.68c-341.22,0 -625.43,-243.61 -688.76,-566.2"/>
   <polyline class="fil2 str3" points="1695.17,9058.48 1694.81,9058.1 1694.81,9056.63 "/>
   <path class="fil2 str3" d="M1694.81 9056.63c-8.57,-43.58 -13.04,-88.66 -13.04,-134.48"/>
   <polyline class="fil2 str3" points="1681.78,8922.15 1681.78,3305.6 13183.46,3305.6 "/>
   <path class="fil5" d="M13172.54 4174.32c-49.17,-27.56 -101.69,-49.16 -156.08,-64.44l-62.94 -281.98 -268.2 0 -62.58 281.98c-54.75,14.91 -107.28,36.88 -156.46,64.44l-242.11 -154.95 -189.61 189.61 152.35 242.13c-27.94,49.53 -49.53,102.05 -64.44,156.44l-281.99 62.58 0 268.2 281.99 62.95c14.91,55.13 36.5,108.03 64.44,157.57l-154.95 243.62 189.6 189.61 243.62 -154.97c49.18,27.95 101.69,49.55 156.45,64.82l62.58 281.61 268.2 0 62.94 -281.61c54.39,-15.27 106.91,-37.25 156.09,-64.82l12.29 7.83 0 -1277.67 -11.18 7.07zm-352.38 977.82l0 0c-191.45,0 -346.42,-154.96 -346.42,-346.43 0,-191.09 154.96,-346.43 346.42,-346.43 191.46,0 346.43,155.33 346.43,346.43 0,191.46 -154.96,346.43 -346.43,346.43z"/>
   <path class="fil5" d="M8340.39 4445.97l0 -565.46 -594.51 -131.86c-32.41,-114.73 -77.86,-225.73 -135.97,-330.04l71.9 -113.24 -2806.04 0 69.3 110.26c-58.49,103.93 -103.94,214.56 -135.61,329.67l-594.5 132.23 0 565.46 594.5 132.6c31.67,115.84 77.12,227.61 135.61,332.27l-326.69 513.68 400.07 399.69 513.31 -326.68c104.3,58.48 214.93,104.31 330.04,136.71l131.86 593.77 565.46 0 132.98 -593.77c114.73,-32.4 224.98,-78.59 328.92,-136.71l513.66 326.68 399.7 -399.69 -324.45 -513.68c57.74,-104.3 103.56,-214.56 135.97,-329.29l594.51 -132.61zm-2059.92 447.75l0 0c-403.42,0 -730.47,-327.05 -730.47,-730.47 0,-403.42 327.05,-730.47 730.47,-730.47 403.41,0 730.47,327.05 730.47,730.47 0,403.42 -327.06,730.47 -730.47,730.47z"/>
   <path class="fil5" d="M4589.88 8328.76l23.84 -448.5 -464.88 -131.12c-21.61,-92.01 -53.64,-181.78 -95.36,-266.71l280.87 -394.48 -300.98 -334.13 -420.92 238.03c-80.47,-50.29 -166.15,-91.63 -256.28,-122.55l-80.47 -476.79 -448.48 -23.85 -129.64 466.37c-92.38,20.49 -181.78,52.52 -266.7,94.61l-394.11 -280.87 -334.51 300.99 238.41 421.29c-51.41,80.08 -92.39,165.76 -122.94,255.9l-135.95 22.35 0 607.55 98.71 27.93c20.85,92.77 52.89,182.53 95.35,267.46l-194.06 271.55 13.04 232.82 0 1.48 0.36 0.38 200.04 222.02 421.68 -238.04c80.45,51.78 166.88,93.51 257.02,124.04l76.74 457.81 0 0.37 3.72 19 448.5 23.84 11.92 -42.84 0 -0.37 117.7 -423.15c93.13,-20.86 182.53,-52.52 268.2,-94.62l393.36 280.49 334.51 -300.6 -237.66 -421.67c50.67,-80.09 91.65,-165.76 121.44,-255.54l477.54 -80.45zm-1191.25 -700.68l0 0c-214.56,-238.4 -581.85,-257.77 -820.24,-43.21 -238.4,214.56 -257.77,581.84 -43.21,820.24 214.55,238.41 581.84,257.39 820.24,42.83 238.4,-214.55 257.76,-581.47 43.21,-819.87z"/>
   <path class="fil5" d="M8176.61 7658.58c17.43,-69.42 26.45,-140.78 27.22,-212.42l322.44 -169.52 -89.09 -327.13 -363.95 17.02c-36.81,-61.36 -80.86,-118.24 -130.77,-168.96l107.85 -348.17 -293.9 -168.36 -245.87 268.3c-69.21,-16.96 -140.2,-25.84 -211.7,-26.97l-170.22 -322.69 -326.66 88.88 17.24 364.43c-61.35,36.81 -118.24,80.85 -169.31,130.62l-348.3 -107.49 -168.57 293.42 269.72 245.21c-17.43,69.42 -26.31,140.43 -26.62,211.83l-323.04 170.1 89.09 327.14 364.44 -17.24c36.33,61.58 80.02,118.34 130.28,169.19l-108.38 346.38 293.91 168.36 244.61 -265.98c69.41,17.44 140.42,26.33 212.18,26.75l169.74 322.92 326.66 -88.89 -14.33 -311.28 -2.43 -53.36c62.05,-36.57 119.28,-80.48 170.96,-130.81l348.04 108.19 143.82 -251.37 24.54 -42.54 -269.59 -245.56zm-772.36 198.72l0 0c-233.39,63.52 -473.88,-74.26 -537.18,-307.2 -63.52,-233.39 74.27,-473.88 307.19,-537.18 233.4,-63.51 473.89,74.27 537.18,307.2 63.52,233.39 -74.26,473.89 -307.19,537.18z"/>
   <path class="fil5" d="M11915.28 8233.92l74.49 -448.87 -454.45 -182.89c-10.43,-95.73 -32.41,-189.61 -65.18,-280.12l327.04 -364.3 -264.84 -370.25 -451.1 191.45c-74.87,-59.98 -156.45,-110.63 -243.62,-151.24l-26.44 -489.46 -449.24 -74.12 -184.02 452.58c-95.35,11.18 -188.85,33.16 -278.99,65.57l-365.43 -327.06 -369.89 264.86 191.84 450.72c-52.89,66.3 -98.72,137.07 -136.71,212.32 -5.22,10.42 -10.44,20.86 -15.28,31.28l-489.09 27.2 -74.49 448.49 73.75 29.79 380.69 153.47c10.43,94.98 32.03,188.86 65.18,279.01l-327.04 365.42 264.84 369.88 451.1 -192.2c74.5,60.72 156.45,111.75 243.24,152.35l25.33 487.23 448.87 74.13 183.65 -449.23c95.72,-10.43 189.6,-32.41 279.75,-65.56l364.67 327.42 370.26 -265.22 -191.83 -451.1c61.09,-74.87 112.86,-157.2 153.84,-244.73l489.09 -26.82zm-1259.43 -20.11l0 0c-264.11,188.86 -631.39,128.13 -820.24,-135.96 -189.23,-263.73 -128.14,-631.02 135.59,-819.88 264.11,-189.24 631.39,-128.14 820.25,135.58 189.24,264.11 128.13,631.4 -135.6,820.25z"/>
  </g>
 </g>
 <g id="Graphics">
  <metadata id="CorelCorpID_4Corel-Layer"/>
  <g id="_2410863052064">
   <g>
    <path class="fil0 str2" d="M5828.89 10684.05l-3531.4 0c-244.49,0 -442.7,-198.2 -442.7,-442.7l0 -4889.45c0,-244.49 198.21,-442.7 442.7,-442.7l3531.4 0c244.49,0 442.7,198.21 442.7,442.7l0 4889.45c0,244.5 -198.21,442.7 -442.7,442.7z"/>
    <path class="fil7" d="M5828.89 10684.05l-3531.4 0c-244.49,0 -442.7,-198.2 -442.7,-442.7l0 -4889.45c0,-244.49 198.21,-442.7 442.7,-442.7l3531.4 0c244.49,0 442.7,198.21 442.7,442.7l0 4889.45c0,244.5 -198.21,442.7 -442.7,442.7z"/>
    <g>
     <path class="fil4 str1" d="M6682.75 5788.07l0 4889.44c0,244.73 -198.17,442.9 -442.91,442.9l-3531.3 0c-244.36,0 -442.53,-198.16 -442.53,-442.9l0 -4889.44c0,-244.36 198.17,-442.53 442.53,-442.53l3531.3 0c244.73,0 442.91,198.17 442.91,442.53z"/>
     <path class="fil0 str2" d="M6682.75 5788.07l0 261.86 -4416.74 0 0 -261.86c0,-244.36 198.17,-442.53 442.53,-442.53l3531.3 0c244.73,0 442.91,198.17 442.91,442.53z"/>
     <polygon class="fil0" points="3767.98,6535.5 2681.36,6535.5 2681.36,6353.25 3767.98,6353.25 "/>
     <polygon class="fil0" points="3767.98,8169.5 2681.36,8169.5 2681.36,7987.24 3767.98,7987.24 "/>
     <polygon class="fil0" points="3767.98,9651.24 2681.36,9651.24 2681.36,9468.99 3767.98,9468.99 "/>
     <g>
      <polygon class="fil5" points="5767.51,6938.16 2681.36,6938.16 2681.36,6804.48 5767.51,6804.48 "/>
      <polygon class="fil5" points="5211.03,7190.6 2681.36,7190.6 2681.36,7060.34 5211.03,7060.34 "/>
      <polygon class="fil5" points="5542.31,7442.11 2681.36,7442.11 2681.36,7311.86 5542.31,7311.86 "/>
      <polygon class="fil5" points="5542.31,7693.42 2681.36,7693.42 2681.36,7563.15 5542.31,7563.15 "/>
     </g>
     <g>
      <polygon class="fil5" points="5767.51,8419.9 2681.36,8419.9 2681.36,8286.22 5767.51,8286.22 "/>
      <polygon class="fil5" points="5211.03,8672.35 2681.36,8672.35 2681.36,8542.09 5211.03,8542.09 "/>
      <polygon class="fil5" points="5542.31,8923.87 2681.36,8923.87 2681.36,8793.6 5542.31,8793.6 "/>
     </g>
     <g>
      <polygon class="fil5" points="5767.51,10047.08 2681.36,10047.08 2681.36,9913.39 5767.51,9913.39 "/>
      <polygon class="fil5" points="5211.03,10299.52 2681.36,10299.52 2681.36,10169.26 5211.03,10169.26 "/>
      <polygon class="fil5" points="5542.31,10551.04 2681.36,10551.04 2681.36,10420.78 5542.31,10420.78 "/>
     </g>
    </g>
   </g>
   <g>
    <path class="fil4 str4" d="M11660.3 1955.27l0 1976.12c0,291.67 -236.16,527.83 -527.84,527.83l-4551.57 0c-291.3,0 -527.83,-236.16 -527.83,-527.83l0 -1976.12c0,-291.66 236.53,-528.2 527.83,-528.2l4551.57 0c291.68,0 527.84,236.54 527.84,528.2z"/>
    <path class="fil0 str2" d="M11660.3 1955.27l0 45.08 -5607.23 0 0 -45.08c0,-291.66 236.53,-528.2 527.83,-528.2l4551.57 0c291.68,0 527.84,236.54 527.84,528.2z"/>
    <path class="fil5" d="M6876.82 1808.14c-31.59,31.57 -82.77,31.57 -114.34,0 -31.59,-31.57 -31.59,-82.76 0,-114.34 31.57,-31.58 82.75,-31.58 114.34,0 31.57,31.58 31.57,82.77 0,114.34z"/>
    <path class="fil5" d="M7252.32 1808.14c-31.58,31.57 -82.77,31.57 -114.34,0 -31.57,-31.57 -31.57,-82.76 0,-114.34 31.57,-31.58 82.76,-31.58 114.34,0 31.57,31.58 31.57,82.77 0,114.34z"/>
    <path class="fil5" d="M7627.81 1808.14c-31.58,31.57 -82.75,31.57 -114.34,0 -31.57,-31.57 -31.57,-82.76 0,-114.34 31.59,-31.58 82.76,-31.58 114.34,0 31.58,31.58 31.58,82.77 0,114.34z"/>
    <polygon class="fil2 str0" points="8243.49,3948.08 6410.6,3948.08 6410.6,2363.74 8243.49,2363.74 "/>
    <g>
     <polygon class="fil5" points="10635.69,2475 8526.27,2475 8526.27,2363.74 10635.69,2363.74 "/>
     <polygon class="fil5" points="10144.32,2705.74 8526.27,2705.74 8526.27,2594.47 10144.32,2594.47 "/>
     <polygon class="fil5" points="10935.74,2936.49 8526.27,2936.49 8526.27,2823.9 10935.74,2823.9 "/>
     <polygon class="fil5" points="10577.98,3160.62 8526.27,3160.62 8526.27,3048.05 10577.98,3048.05 "/>
    </g>
   </g>
  </g>
 </g>
 <g id="Character">
  <metadata id="CorelCorpID_5Corel-Layer"/>
  <g id="_2411030348864">
   <path class="fil0" d="M8995.92 13442.28c0,0 -979.31,280.87 -1116.01,329.3 -124.42,43.95 -461.52,162.04 -714.44,125.54 -24.96,-3.73 -49.18,-8.95 -72.28,-15.65 -256.27,-76.37 -371.38,-147.52 -404.91,-308.81 -33.9,-161.66 93.88,-279.75 216.8,-355.74 122.93,-75.98 789.69,-155.33 789.69,-155.33l160.93 47.31 0.37 0 1139.85 333.38z"/>
   <path class="fil4" d="M7165.46 13897.11c-24.96,-3.73 -49.18,-8.95 -72.28,-15.65 -256.27,-76.37 -371.38,-147.52 -404.91,-308.81 -33.9,-161.66 93.88,-279.75 216.8,-355.74 122.93,-75.98 789.69,-155.33 789.69,-155.33l160.93 47.31c-145.65,67.06 -688.75,104.3 -807.2,172.47 -118.47,68.16 -175.83,196.67 -105.79,370.26 37.25,92.38 137.08,181.78 222.76,245.48z"/>
   <path class="fil2 str5" d="M8848.57 13482.22c0,0 -735.46,190.56 -1027.08,312.52 -291.62,121.96 -848.06,175.32 -1046.25,-76.23 -198.18,-251.55 -22.86,-467.94 175.33,-516.01 198.19,-48.07 598.95,-124.29 817.8,-93.8"/>
   <path class="fil2 str5" d="M7180.21 13883.72c0,0 -374.2,-205.16 -249.94,-492.77 91.7,-212.23 590.9,-166.23 838.09,-282.24"/>
   <path class="fil0" d="M11978.52 13942.55c-10.06,100.2 -45.44,196.31 -146.76,255.91 -67.42,39.86 -163.53,63.69 -300.99,62.2 -343.43,-4.46 -988.98,-249.95 -988.98,-249.95l-604.58 -334.12 314.4 -497.66 86.05 -136.34 222.38 49.92c0,0 184.02,104.3 369.16,187.36 185.13,83.07 634.36,100.57 792.68,228.71 158.32,127.77 273.78,267.08 256.64,433.96z"/>
   <path class="fil4" d="M11978.52 13942.55c-10.06,100.2 -45.44,196.31 -146.76,255.91 18.99,-77.86 34.65,-185.51 -17.14,-301.73 -67.05,-151.61 -287.2,-285.33 -576.26,-307.68 -288.68,-22.36 -510.33,-157.57 -626.18,-217.92 -90.51,-46.93 -281.23,-149.37 -360.58,-192.2l86.05 -136.34 222.38 49.92c0,0 184.02,104.3 369.16,187.36 185.13,83.07 634.36,100.57 792.68,228.71 158.32,127.77 273.78,267.08 256.64,433.96z"/>
   <path class="fil2 str5" d="M10071.21 13770.26c430.36,246.55 922.6,424.07 1415.02,483.39 109.93,13.23 237.91,15.07 311.6,-67.58 41.06,-46.07 56.06,-111.25 50.77,-172.73 -13.34,-155.19 -143.81,-278.27 -286.92,-339.78 -143.11,-61.5 -301.16,-76.2 -453.16,-110.27 -151.35,-33.93 -298.24,-87.67 -435.77,-159.41 -109.25,-57.01 -215.04,-126.26 -335.62,-151.79 -120.57,-25.52 -264.2,5.44 -328.5,110.58"/>
   <path class="fil2 str5" d="M11757.48 14228.19c111.27,-57.11 202.62,-161.96 221.15,-285.66 21.92,-146.28 -61.38,-293.33 -178.79,-383.33 -117.4,-89.99 -264.06,-132.22 -408.9,-162.34 -144.82,-30.1 -292.94,-50.33 -430.73,-104.16 -211.84,-82.75 -420.76,-246.25 -640.59,-187.93"/>
   <path class="fil0" d="M10753.37 8539.06l-1022.89 -389.26 -12.67 -4.84c0,0 3.73,-27.2 6.72,-66.69 6.32,-81.57 9.67,-214.56 -28.7,-259.63 -56.98,-66.68 -218.65,-10.8 -376.22,-83.08 -157.57,-72.26 -449.23,56.99 -449.23,56.99 0,0 -210.47,-38.74 -303.22,113.24 -47.31,122.55 -30.92,305.08 -30.92,305.08 0,0 -6.7,2.61 -19.36,7.08 -121.8,45.45 -784.85,295.02 -925.29,395.22 -154.96,109.89 -326.3,1236.71 -381.43,1567.48 -55.14,331.15 -153.1,629.15 -103.19,743.15 49.55,113.61 762.13,662.3 1171.88,803.86 409.75,141.92 1863.62,100.2 1863.62,100.2 0,0 23.84,-6.34 65.94,-19.75 245.84,-78.96 1118.24,-404.16 1580.88,-1171.13 0,0 -448.11,-1469.89 -1035.92,-2097.93zm-2763.58 1895.29l0 0c-75.24,53.27 -35.01,260.01 -35.01,260.01l-128.14 -112.88 321.47 -790.43 137.08 606.79c0,0 -220.15,-16.39 -295.4,36.51zm2571.75 502.14l0 0c-35.39,18.25 101.69,-361.71 36.5,-447.75 -65.18,-86.43 -260.38,-77.86 -260.38,-77.86l16.76 -103.94c2.24,-11.54 115.85,-594.13 115.85,-594.13l38.36 -45.82c0,0 397.84,682.05 468.98,922.31 0,0 -433.58,347.17 -416.08,347.17z"/>
   <path class="fil4" d="M8822.08 6073.66l-527.92 560.5c0,0 -72.82,64.36 -43.87,226.96 28.93,162.59 96.31,302.26 147.22,313.09 50.89,10.84 122.24,10.94 122.24,10.94 0,0 113.14,245.18 193.25,341.54 0,0 27.93,378.43 13.05,483.49 0,0 189.65,165.69 368.31,186.75 178.66,21.06 454.69,-252.65 454.69,-252.65l68.41 -335.08c0,0 161.95,-245.84 173,-311.29 11.06,-65.46 85.08,-48.68 121.46,-80.94 36.38,-32.28 120.6,-176.68 134.5,-313.11 13.9,-136.44 14.88,-293.15 -143.6,-247.12 -137.32,-36.9 -51.37,-327.21 -51.37,-327.21l-241.31 -212.91 -788.07 -42.95z"/>
   <path class="fil3" d="M9730.48 8149.8c-8.19,21.6 -17.14,42.09 -27.2,61.09 -87.15,164.26 -466.73,477.17 -466.73,477.17l-114.73 -352.75 -62.96 352.75c-126.64,-55.14 -512.93,-390 -512.93,-390 0,0 -13.04,-31.29 -29.06,-80.09 12.67,-4.47 19.36,-7.08 19.36,-7.08 0,0 -16.39,-182.53 30.92,-305.08 92.75,-151.98 303.22,-113.24 303.22,-113.24 0,0 291.67,-129.25 449.23,-56.99 157.57,72.28 319.24,16.4 376.22,83.08 56.99,66.68 21.98,326.31 21.98,326.31l12.67 4.84z"/>
   <path class="fil7" d="M10753.37 8539.06l-1022.89 -389.26 -12.67 -4.84c0,0 3.73,-27.2 6.72,-66.69l-21.25 132.61 -151.23 205.62c0,0 255.77,92.27 471.99,208.03 150.32,80.48 236.65,244.14 216.85,413.49l-188.57 1612.36 -77.1 915.61 233.19 242.12c245.84,-78.96 1118.24,-404.16 1580.88,-1171.13 0,0 -448.11,-1469.89 -1035.92,-2097.93zm-191.83 2397.42l0 0c-35.39,18.25 101.69,-361.71 36.5,-447.75 -65.18,-86.43 -260.38,-77.86 -260.38,-77.86l16.76 -103.94c2.24,-11.54 115.85,-594.13 115.85,-594.13l38.36 -45.82c0,0 397.84,682.05 468.98,922.31 0,0 -433.58,347.17 -416.08,347.17z"/>
   <path class="fil7" d="M8354.47 10488.73l-159.06 -531.56c0,0 -285.17,-972.65 -480.73,-1212.54l51.41 684.04c0,0 -167.8,817.18 -323.12,1060.06 -155.33,242.5 -188.85,303.22 0,303.22 189.22,0 648.14,366.17 648.14,366.17l-35.38 -305.45 298.74 -363.93zm-399.7 205.62l0 0 -128.14 -112.88 321.47 -790.43 137.08 606.79c0,0 -220.15,-16.39 -295.4,36.51 -75.24,53.27 -35.01,260.01 -35.01,260.01z"/>
   <path class="fil2 str5" d="M8712.99 7526.7c0,0 29.37,286.62 0,417.58"/>
   <path class="fil2 str5" d="M9578.25 7905.87c0,0 -1.67,-139.63 31.9,-273.84"/>
   <path class="fil2 str5" d="M9655.03 6287.36c0,0 173.42,217.87 164.52,382.39 -8.9,164.52 -22.23,360.16 -17.79,551.35 4.45,191.21 -306.81,591.39 -466.87,626.95 -160.08,35.57 -297.92,44.47 -400.18,-57.8 -102.26,-102.26 -204.54,-244.55 -337.94,-426.86 -133.39,-182.3 -102.26,-582.48 -102.26,-582.48"/>
   <path class="fil2 str5" d="M9237.63 6933.4c-10.59,59.75 -15.14,120.57 -13.52,181.23 1.35,50.8 8.89,105.68 44.48,141.95 19.17,19.54 47.01,35.18 50.65,62.31 3.23,24.06 -15.17,45.92 -35.62,59.01 -20.44,13.11 -44.19,21.2 -62.52,37.15"/>
   <path class="fil2 str5" d="M8962.25 7436.19c0,0 20.06,129.25 193.37,156.29"/>
   <path class="fil5" d="M8980.29 7031.94c0,37.35 -16.15,67.62 -36.07,67.62 -19.92,0 -36.07,-30.28 -36.07,-67.62 0,-37.35 16.14,-67.61 36.07,-67.61 19.91,0 36.07,30.27 36.07,67.61z"/>
   <path class="fil5" d="M9497.25 7048.2c0,37.34 -16.15,67.61 -36.07,67.61 -19.92,0 -36.07,-30.28 -36.07,-67.61 0,-37.35 16.14,-67.62 36.07,-67.62 19.91,0 36.07,30.28 36.07,67.62z"/>
   <path class="fil2 str6" d="M9392.95 6884.47c0,0 168.09,-168.09 310.32,19.39"/>
   <path class="fil2 str6" d="M9037.38 6887.69c0,0 -106.67,-119.6 -274.76,0"/>
   <path class="fil5" d="M8726.05 7684.2c0,0 102.94,283.8 332.88,364.28 229.96,80.48 535.27,-337.22 535.27,-337.22l-15.96 -54.32c0,0 -200.06,259.92 -422.61,215.6 -222.55,-44.33 -442.62,-345.85 -442.62,-345.85l13.05 157.5z"/>
   <path class="fil2 str5" d="M8519.74 7174.22c0,0 -137.07,48.41 -173.51,-58.41 -36.45,-106.79 -161.39,-387.93 -52.08,-481.64 109.35,-93.7 197.21,123.74 197.21,123.74"/>
   <path class="fil2 str5" d="M9801.52 7232.45c0,0 127.39,25.62 163.84,-81.18 36.45,-106.8 161.39,-387.93 52.06,-481.64 -109.33,-93.71 -197.2,123.73 -197.2,123.73"/>
   <path class="fil5" d="M8491.36 7031.94c37.97,-1.72 100.27,-38.74 120.28,-71.05 20,-32.32 28.46,-70.33 34.95,-107.79 12.43,-71.72 18.81,-144.48 19.06,-217.27 0.09,-28.45 -0.66,-57.46 7.64,-84.67 8.65,-28.32 26.6,-52.84 45.83,-75.37 47.84,-56.05 105.43,-103.42 150.92,-161.41 45.49,-57.99 78.91,-131.4 66.62,-204.06 0,0 310.83,284.14 758.9,196.27 241.22,-47.3 472.75,-259.01 444.55,-525.05 -10.01,-94.71 -79.61,-162.78 -169.96,-185.25 -119.25,-29.64 -226.4,33.92 -334.42,74.65 -196.96,74.28 -389.67,-53.28 -588.67,-74.67 -170.17,-18.3 -379.06,2.8 -467.69,172 0,0 -305.68,35.91 -439.58,286.97 -133.89,251.06 120.63,598.64 120.63,598.64 0,0 102.45,-124.01 234.1,127.04l-3.15 251.03z"/>
   <path class="fil5" d="M9674.29 6223.15c0,0 -79.05,411.93 127.22,611.4 0,0 45.14,-123.83 90.9,-154.04 0,0 114.8,-217.65 -36.13,-457.35 -150.92,-239.7 -181.99,0 -181.99,0z"/>
   <path class="fil8 str7" d="M10052.14 5754.38c-30.52,113.51 -126.51,201.35 -235.38,245.69 -286.35,116.65 -564.46,-12.7 -851.18,-38.05 -234.32,-20.71 -492.62,190.4 -508.99,430.94"/>
   <path class="fil8 str7" d="M8278.77 6329.53c4.3,-189.39 129.43,-370.61 305,-441.75"/>
   <path class="fil2 str5" d="M8646.96 7905.87c0,0 188.66,207.89 445.93,305.07 0,0 342.79,-99.41 517.26,-338.4"/>
   <path class="fil2 str5" d="M9173.76 7031.94c0,167.53 -135.81,303.34 -303.33,303.34 -167.53,0 -303.34,-135.81 -303.34,-303.34 0,-167.52 135.81,-303.33 303.34,-303.33 167.52,0 303.33,135.81 303.33,303.33z"/>
   <path class="fil2 str5" d="M9851.45 7031.94c0,167.53 -135.81,303.34 -303.34,303.34 -167.52,0 -303.33,-135.81 -303.33,-303.34 0,-167.52 135.81,-303.33 303.33,-303.33 167.53,0 303.34,135.81 303.34,303.33z"/>
   <path class="fil2 str5" d="M8712.99 7792.74c0,0 -92.22,18.67 -145.9,113.14 -53.69,94.47 -21.3,392.02 -21.3,392.02 0,0 277.13,274.29 513.13,389.99"/>
   <polyline class="fil2 str5" points="9058.93,8687.88 9128.56,8296.38 9236.62,8687.88 "/>
   <path class="fil2 str5" d="M9236.62 8687.88c0,0 365.47,-258.46 466.66,-476.94 0,0 33.01,-254.73 0,-338.4 -33,-83.68 -109.08,-79.81 -109.08,-79.81"/>
   <path class="fil2 str5" d="M8278.77 10410.97c0,0 -108.2,-725.85 -252.39,-1022.01"/>
   <path class="fil2 str5" d="M7714.67 8744.63c0,0 136.94,191.97 224.2,375.19"/>
   <path class="fil2 str5" d="M10561.57 9286.53c38.11,-144.63 78.62,-271.49 119.14,-354.31"/>
   <path class="fil2 str5" d="M10337.63 10410.97c0,0 78.16,-497.61 171.16,-907.72"/>
   <path class="fil2 str5" d="M10470.16 9712.65c74.43,-99.36 182.36,-173.17 301.96,-206.48"/>
   <path class="fil2 str5" d="M9717.95 8144.93c0,0 629.4,251.39 1035.59,394.18 0,0 499.77,470 1035.6,2097.91 0,0 -491.17,825.98 -1425.06,1090.78"/>
   <line class="fil2 str5" x1="10526.31" y1="10966.04" x2="10977.54" y2= "10589.29" />
   <path class="fil2 str5" d="M10977.54 10589.29c0,0 238.71,-181.42 486.95,-57.29"/>
   <path class="fil2 str5" d="M10508.79 9667.1c0,0 373.27,549.8 468.75,922.18"/>
   <line class="fil2 str5" x1="7958.84" y1="10715.19" x2="7826.77" y2= "10589.29" />
   <path class="fil2 str5" d="M7826.77 10589.29c0,0 -196.02,-34.26 -417.96,114.53"/>
   <path class="fil2 str5" d="M7826.77 10589.29c0,0 164.02,-538.76 325.8,-816.89"/>
   <path class="fil2 str5" d="M8536.1 8210.94c0,0 -905.36,339.71 -994.14,438.63 -88.77,98.94 -426.13,1999 -435.01,2216.43 -7.94,194.36 697.26,631.1 1045.62,815.19"/>
   <path class="fil4 str1" d="M11813.79 7905.87l-1031.66 0c-121.81,0 -220.56,-98.75 -220.56,-220.57l0 -605.23c0,-121.79 98.74,-220.55 220.56,-220.55l1031.66 0c121.82,0 220.58,98.75 220.58,220.55l0 605.23c0,121.81 -98.75,220.57 -220.58,220.57z"/>
   <polyline class="fil2 str5" points="11036.75,7174.22 10753.54,7352.01 11016.35,7585.1 "/>
   <polyline class="fil2 str5" points="11552.82,7602.05 11807.32,7385.14 11513.54,7192.53 "/>
   <line class="fil2 str5" x1="11174.44" y1="7735.49" x2="11383.51" y2= "7079.94" />
   <path class="fil5" d="M9213.14 8852.86c0,32.87 -26.66,59.53 -59.54,59.53 -32.89,0 -59.55,-26.66 -59.55,-59.53 0,-32.89 26.66,-59.55 59.55,-59.55 32.88,0 59.54,26.66 59.54,59.55z"/>
   <g>
    <path class="fil5" d="M10260.76 12034.5l-2060.46 0c-26.68,0 -48.32,-21.63 -48.32,-48.3 0,-26.68 21.64,-48.32 48.32,-48.32l2060.46 0c26.68,0 48.31,21.64 48.31,48.32 0,26.67 -21.63,48.3 -48.31,48.3z"/>
    <path class="fil4 str1" d="M10332.89 11874.37l276.11 -1296.67c18.28,-85.85 -47.18,-166.73 -134.95,-166.73l-2407.39 0c-86.94,0 -152.21,79.44 -135.37,164.73l247.55 1253.52c12.54,63.48 67.52,109.72 132.22,111.21l1883.71 43.15c66.31,1.51 124.31,-44.35 138.13,-109.21z"/>
    <path class="fil5" d="M9454.34 11158.23c0,106.14 -86.04,192.2 -192.18,192.2 -106.15,0 -192.2,-86.06 -192.2,-192.2 0,-106.14 86.05,-192.19 192.2,-192.19 106.14,0 192.18,86.05 192.18,192.19z"/>
    <line class="fil2 str5" x1="9832.09" y1="10534.03" x2="10118.12" y2= "10534.03" />
    <line class="fil2 str5" x1="8466.19" y1="10534.03" x2="9551.9" y2= "10534.03" />
   </g>
   <path class="fil5" d="M10337.63 13249.98l-219.51 576.02c0,0 -559.61,-141.06 -1276.7,-288.01 -749.8,-153.64 -1532.9,-352.56 -1939.12,-1065.21 -49.52,-86.89 -82.47,-189.54 -59.3,-286.84 58.64,-246.17 378.86,-312.98 589.93,-337.62 132.48,-15.47 266.21,-20.59 399.51,-22.45 67.95,-0.96 292.15,-36.57 346.4,3.34 0.01,0.01 140.7,103.52 260.57,154.4 119.86,50.88 1869.67,-45.73 1869.67,-45.73 0,0 52.03,-109.85 55.01,-210.09 275.06,-139.78 912,-258.22 1181.11,-205.89 423.2,82.29 670.07,329.16 623.05,587.79 -47.03,258.61 -980.96,952.2 -1830.62,1140.29z"/>
   <path class="fil2 str8" d="M10337.63 13249.98c0,0 -532.26,-141.06 -967.22,-434.96 -434.96,-293.88 -774.77,-634.81 -1380.74,-564.26"/>
   <path class="fil2 str8" d="M9270.36 12745.69c274.73,-79.06 476.38,-256.75 696.83,-427.42 233.51,-180.8 480.45,-355.87 746.03,-490.24"/>
   <line class="fil2 str5" x1="9173.76" y1="7079.94" x2="9254.36" y2= "7079.94" />
  </g>
 </g>
</svg>
