<?xml version="1.0" encoding="UTF-8"?>
<svg xmlns="http://www.w3.org/2000/svg" xmlns:xlink="http://www.w3.org/1999/xlink" width="17px" height="12px" viewBox="0 0 17 12" version="1.1">
<g id="surface1">
<path style="fill-rule:evenodd;fill:rgb(99.607843%,99.607843%,99.607843%);fill-opacity:1;stroke-width:21.52;stroke-linecap:butt;stroke-linejoin:miter;stroke:rgb(21.568627%,20.392157%,20.784314%);stroke-opacity:1;stroke-miterlimit:22.9256;" d="M 12630.436812 4983.529792 C 12673.70313 4907.369513 12750.251232 4864.322398 12836.783869 4864.322398 C 12926.644684 4864.322398 12999.864608 4907.369513 13046.459105 4983.529792 L 14447.622187 7390.85689 C 14494.216684 7467.01717 14494.216684 7556.422715 14450.950366 7632.582995 C 14404.355869 7708.743274 14331.135945 7751.790389 14241.27513 7751.790389 L 11442.277143 7751.790389 C 11352.416328 7751.790389 11279.196405 7708.743274 11232.601908 7632.582995 C 11189.335589 7556.422715 11189.335589 7467.01717 11232.601908 7390.85689 Z M 4676.090572 132.451115 L 7268.741501 4596.105761 L 9804.813399 132.451115 C 9848.079717 56.290836 9924.627819 13.243721 10014.488634 13.243721 L 12863.409296 13.243721 C 12953.270111 13.243721 13029.818213 56.290836 13073.084532 132.451115 C 13116.35085 208.611395 13116.35085 294.705624 13073.084532 370.865904 L 7478.416737 10029.976143 C 7435.150418 10106.136423 7358.602317 10149.183537 7268.741501 10149.183537 C 7182.208864 10149.183537 7105.660762 10106.136423 7062.394444 10029.976143 L 4476.399871 5549.764914 L 3278.255668 7632.582995 C 3231.661171 7708.743274 3158.441248 7751.790389 3068.580432 7751.790389 L 252.941554 7748.479072 C 163.080739 7748.479072 86.532637 7705.431958 43.266318 7629.271678 C 0 7553.111399 0 7463.705853 43.266318 7387.545574 L 2818.967057 2668.919557 L 1474.383006 370.865904 C 1431.116688 294.705624 1431.116688 208.611395 1474.383006 132.451115 C 1517.649324 56.290836 1594.197426 9.932405 1684.058242 9.932405 L 4466.415336 9.932405 C 4556.276152 9.932405 4632.824254 56.290836 4676.090572 132.451115 Z M 4676.090572 132.451115 " transform="matrix(0.00117369,0,0,0.00117967,0,0.0000018224)"/>
</g>
</svg>
